<?xml version="1.0" standalone="no"?>
<!DOCTYPE svg PUBLIC "-//W3C//DTD SVG 20010904//EN"
 "http://www.w3.org/TR/2001/REC-SVG-20010904/DTD/svg10.dtd">
<svg version="1.0" xmlns="http://www.w3.org/2000/svg"
 width="128.000000pt" height="128.000000pt" viewBox="0 0 128.000000 128.000000"
 preserveAspectRatio="xMidYMid meet">

<g transform="translate(0.000000,128.000000) scale(0.100000,-0.100000)"
fill="#000000" stroke="none">
<path d="M502 1265 c-237 -52 -438 -254 -487 -490 -80 -385 198 -750 589 -772
186 -10 353 54 486 187 253 252 253 647 0 901 -155 155 -374 220 -588 174z
m-59 -286 c23 -29 22 -84 -3 -109 -31 -31 -102 -28 -129 6 -49 63 -1 141 79
130 19 -3 43 -15 53 -27z m494 -215 c16 -12 39 -41 53 -65 24 -42 25 -51 25
-214 l0 -170 -77 -3 -78 -3 0 146 c0 183 -13 215 -85 215 -12 0 -33 -9 -46
-19 -23 -18 -24 -26 -29 -178 l-5 -158 -77 -3 -78 -3 0 236 0 235 80 0 80 0 0
-27 0 -26 23 20 c40 37 61 44 124 40 44 -2 71 -9 90 -23z m-487 -219 l0 -235
-75 0 -75 0 0 235 0 235 75 0 75 0 0 -235z"/>
</g>
</svg>
