<?xml version="1.0" standalone="no"?>
<!DOCTYPE svg PUBLIC "-//W3C//DTD SVG 20010904//EN"
 "http://www.w3.org/TR/2001/REC-SVG-20010904/DTD/svg10.dtd">
<svg version="1.0" xmlns="http://www.w3.org/2000/svg"
 width="512.000000pt" height="512.000000pt" viewBox="0 0 512.000000 512.000000"
 preserveAspectRatio="xMidYMid meet">

<g transform="translate(0.000000,512.000000) scale(0.100000,-0.100000)"
fill="#000000" stroke="none">
<path d="M277 5110 c-105 -18 -199 -90 -246 -190 -21 -45 -26 -70 -26 -135 0
-155 -68 -78 1075 -1220 l1010 -1010 -1019 -1020 c-827 -829 -1022 -1029
-1041 -1070 -33 -70 -35 -199 -3 -267 29 -63 96 -134 158 -166 44 -23 62 -27
145 -27 80 0 103 4 145 24 40 19 250 224 1068 1040 l1017 1016 1018 -1016
c817 -816 1027 -1021 1067 -1040 42 -20 65 -24 145 -24 83 0 101 4 145 27 62
32 129 103 158 166 17 37 22 66 22 132 -1 149 62 78 -1075 1215 l-1010 1010
1019 1020 c1142 1144 1065 1057 1066 1210 0 66 -5 90 -26 135 -81 171 -285
242 -454 158 -26 -13 -391 -370 -1057 -1036 l-1018 -1017 -1017 1017 c-667
666 -1032 1023 -1058 1036 -31 16 -156 47 -159 41 -1 -1 -22 -5 -49 -9z"/>
</g>
</svg>
