<?xml version="1.0" standalone="no"?>
<!DOCTYPE svg PUBLIC "-//W3C//DTD SVG 20010904//EN"
 "http://www.w3.org/TR/2001/REC-SVG-20010904/DTD/svg10.dtd">
<svg version="1.0" xmlns="http://www.w3.org/2000/svg"
 width="512.000000pt" height="512.000000pt" viewBox="0 0 512.000000 512.000000"
 preserveAspectRatio="xMidYMid meet">

<g transform="translate(0.000000,512.000000) scale(0.100000,-0.100000)"
fill="#000000" stroke="none">
<path d="M2315 5109 c-1125 -107 -2066 -966 -2269 -2073 -164 -888 127 -1756
794 -2368 669 -615 1628 -824 2499 -546 398 127 742 339 1038 639 404 409 640
893 725 1484 20 139 16 522 -6 670 -23 153 -83 391 -130 520 -46 124 -168 375
-232 475 -196 309 -470 589 -769 788 -133 89 -391 218 -540 271 -357 126 -742
175 -1110 140z m1565 -1464 c16 -8 34 -24 40 -34 14 -27 14 -2075 0 -2102 -28
-51 30 -49 -1360 -49 -1390 0 -1332 -2 -1360 49 -14 27 -14 2075 0 2101 27 51
-31 49 1358 50 1134 0 1297 -2 1322 -15z"/>
<path d="M1560 3446 c14 -13 244 -211 513 -440 l487 -418 488 418 c268 229
498 427 512 440 l25 24 -1025 0 -1025 0 25 -24z"/>
<path d="M1370 2505 l0 -855 1190 0 1190 0 0 855 c0 470 -2 855 -5 855 -3 0
-262 -220 -577 -490 -529 -454 -574 -490 -608 -490 -34 0 -79 36 -608 490
-315 270 -574 490 -577 490 -3 0 -5 -385 -5 -855z"/>
</g>
</svg>
