<?xml version="1.0" standalone="no"?>
<!DOCTYPE svg PUBLIC "-//W3C//DTD SVG 20010904//EN"
 "http://www.w3.org/TR/2001/REC-SVG-20010904/DTD/svg10.dtd">
<svg version="1.0" xmlns="http://www.w3.org/2000/svg"
 width="512.000000pt" height="512.000000pt" viewBox="0 0 512.000000 512.000000"
 preserveAspectRatio="xMidYMid meet">

<g transform="translate(0.000000,512.000000) scale(0.100000,-0.100000)"
fill="#000000" stroke="none">
<path d="M2315 5109 c-1137 -117 -2066 -966 -2269 -2073 -133 -723 33 -1430
476 -2024 93 -125 365 -396 491 -491 356 -265 748 -428 1197 -498 142 -21 528
-25 665 -5 717 103 1316 453 1739 1016 255 341 423 758 488 1211 17 118 17
512 0 630 -57 403 -201 788 -410 1100 -410 613 -1033 1006 -1772 1120 -126 19
-477 28 -605 14z m511 -990 c631 -87 1149 -568 1285 -1190 73 -333 27 -705
-124 -1006 -77 -152 -162 -269 -292 -399 -225 -226 -469 -358 -785 -425 -143
-31 -417 -33 -565 -5 -119 22 -274 71 -381 120 -42 20 -84 36 -93 36 -9 0
-191 -47 -406 -104 -214 -56 -391 -102 -392 -101 -2 1 46 179 105 396 l108
394 -47 95 c-60 121 -102 248 -130 392 -29 143 -31 394 -6 533 60 330 203 603
437 835 209 206 476 351 756 409 55 11 113 22 129 24 69 9 329 6 401 -4z"/>
<path d="M2512 3869 c-428 -32 -822 -292 -1025 -677 -98 -187 -141 -367 -141
-592 0 -259 49 -432 195 -687 l24 -41 -63 -228 c-34 -125 -61 -229 -58 -231 2
-2 108 24 236 58 l233 61 111 -56 c217 -109 348 -141 591 -141 176 0 224 7
373 51 442 132 775 503 878 979 26 122 24 359 -5 494 -134 632 -702 1057
-1349 1010z m-310 -582 c32 -36 161 -355 154 -382 -3 -12 -33 -57 -66 -101
-33 -43 -60 -85 -60 -94 0 -25 106 -173 174 -243 86 -88 172 -150 280 -203
125 -61 132 -60 208 33 96 117 105 125 131 118 30 -9 316 -142 345 -161 18
-12 22 -24 22 -62 0 -27 -7 -73 -16 -103 -20 -67 -92 -142 -180 -185 -55 -27
-67 -29 -179 -29 -111 0 -127 3 -214 34 -245 87 -389 177 -572 360 -198 198
-337 402 -375 551 -24 94 -16 228 18 300 33 72 99 153 140 173 20 10 59 17
101 17 59 0 71 -3 89 -23z"/>
</g>
</svg>
