<?xml version="1.0" standalone="no"?>
<!DOCTYPE svg PUBLIC "-//W3C//DTD SVG 20010904//EN"
 "http://www.w3.org/TR/2001/REC-SVG-20010904/DTD/svg10.dtd">
<svg version="1.0" xmlns="http://www.w3.org/2000/svg"
 width="500.000000pt" height="500.000000pt" viewBox="0 0 500.000000 500.000000"
 preserveAspectRatio="xMidYMid meet">

<g transform="translate(0.000000,500.000000) scale(0.100000,-0.100000)"
fill="#000000" stroke="none">
<path d="M2595 4902 c-49 -24 -1431 -935 -1463 -965 -20 -18 -862 -1284 -949
-1427 -25 -40 -28 -55 -28 -130 0 -75 4 -93 33 -155 30 -64 61 -98 335 -373
l302 -302 155 -56 c85 -30 160 -61 166 -67 6 -7 23 -48 38 -92 33 -95 91 -206
154 -294 46 -64 824 -845 865 -868 17 -9 233 -12 914 -13 l892 0 23 77 c13 43
60 198 103 345 l80 268 321 105 321 105 6 436 c4 241 7 652 7 914 l0 477 -29
39 c-16 21 -197 206 -402 409 -438 434 -483 469 -725 553 l-76 27 -64 170 -63
170 -293 291 c-270 268 -299 294 -370 329 -97 47 -189 57 -253 27z m215 -94
c57 -27 101 -67 351 -315 l286 -284 52 -138 c28 -76 51 -141 51 -146 0 -4 -26
-4 -57 0 -32 4 -545 10 -1139 14 l-1082 6 668 440 c367 242 683 445 701 451
46 16 92 8 169 -28z m1331 -3914 c-9 -6 -139 -64 -290 -129 l-274 -117 -1171
411 c-644 227 -1179 419 -1188 429 -10 9 -22 41 -28 71 -6 35 -10 460 -10
1192 l0 1137 1489 -1491 c1276 -1278 1487 -1493 1472 -1503z m-471 2906 c10
-30 196 -560 414 -1178 218 -617 396 -1127 396 -1132 0 -5 -52 -128 -116 -274
-103 -235 -119 -266 -145 -277 -16 -6 -32 -9 -35 -6 -3 3 49 130 115 282 l121
276 -415 1178 c-228 648 -415 1182 -415 1188 0 6 12 8 31 4 27 -5 34 -13 49
-61z m-1258 -2795 c634 -223 1159 -405 1168 -405 8 1 134 52 280 115 146 62
266 113 267 112 1 -2 -68 -236 -153 -515 l-25 -82 -848 0 -849 0 -33 28 c-19
16 -203 197 -409 403 -304 302 -387 391 -436 465 -73 108 -150 284 -125 284 5
0 529 -182 1163 -405z"/>
</g>
</svg>
